<?xml version="1.0" encoding="UTF-8"?>
<svg xmlns="http://www.w3.org/2000/svg" xmlns:xlink="http://www.w3.org/1999/xlink" width="24px" height="24px" viewBox="0 0 24 24" version="1.1">
<g id="surface1">
<path style=" stroke:none;fill-rule:nonzero;fill:rgb(0%,0%,0%);fill-opacity:1;" d="M 16 9 C 22 9 22 13 22 13 L 22 15 L 16 15 L 16 13 C 16 13 16 11.308594 14.851562 9.800781 C 14.679688 9.570312 14.46875 9.351562 14.25 9.140625 C 14.769531 9.058594 15.339844 9 16 9 M 2 13 C 2 13 2 9 8 9 C 14 9 14 13 14 13 L 14 15 L 2 15 L 2 13 M 9 17 L 9 19 L 15 19 L 15 17 L 18 20 L 15 23 L 15 21 L 9 21 L 9 23 L 6 20 L 9 17 M 8 1 C 6.339844 1 5 2.339844 5 4 C 5 5.660156 6.339844 7 8 7 C 9.660156 7 11 5.660156 11 4 C 11 2.339844 9.660156 1 8 1 M 16 1 C 14.339844 1 13 2.339844 13 4 C 13 5.660156 14.339844 7 16 7 C 17.660156 7 19 5.660156 19 4 C 19 2.339844 17.660156 1 16 1 Z M 16 1 "/>
</g>
</svg>
