<svg xmlns="http://www.w3.org/2000/svg" enable-background="new 0 0 24 24" height="24" viewBox="0 0 24 24" width="24"><g><path d="M0,0h24v24H0V0z" fill="none"/><path d="M12,22c-2.76,0-5.26-1.12-7.07-2.93C3.12,17.26,2,14.76,2,12s1.12-5.26,2.93-7.07C6.74,3.12,9.24,2,12,2 s5.26,1.12,7.07,2.93C20.88,6.74,22,9.24,22,12s-1.12,5.26-2.93,7.07C17.26,20.88,14.76,22,12,22z M13,19.93 c1.73-0.22,3.29-1,4.51-2.22C19.14,16.09,20,14.13,20,12s-0.86-4.09-2.49-5.71C16.29,5.07,14.73,4.29,13,4.07V19.93z"/></g></svg>
